<svg width="800" height="600" viewBox="0 0 800 600" fill="none" xmlns="http://www.w3.org/2000/svg">
  <!-- Background -->
  <rect width="800" height="600" fill="#F8FAFC"/>
  
  <!-- Dashboard Container -->
  <rect x="40" y="40" width="720" height="520" rx="16" fill="white" stroke="#E2E8F0" stroke-width="2"/>
  
  <!-- Header -->
  <rect x="40" y="40" width="720" height="80" rx="16" fill="#1E293B"/>
  <circle cx="100" cy="80" r="20" fill="#3B82F6"/>
  <rect x="140" y="70" width="120" height="8" rx="4" fill="white" opacity="0.9"/>
  <rect x="140" y="85" width="80" height="6" rx="3" fill="white" opacity="0.6"/>
  
  <!-- Sidebar -->
  <rect x="40" y="120" width="200" height="440" fill="#F1F5F9"/>
  <rect x="60" y="140" width="160" height="40" rx="8" fill="#3B82F6"/>
  <rect x="60" y="200" width="160" height="32" rx="6" fill="#E2E8F0"/>
  <rect x="60" y="250" width="160" height="32" rx="6" fill="#E2E8F0"/>
  <rect x="60" y="300" width="160" height="32" rx="6" fill="#E2E8F0"/>
  <rect x="60" y="350" width="160" height="32" rx="6" fill="#E2E8F0"/>
  
  <!-- Main Content Area -->
  <!-- Stats Cards -->
  <rect x="260" y="140" width="220" height="120" rx="12" fill="white" stroke="#E2E8F0" stroke-width="1"/>
  <circle cx="300" cy="180" r="30" fill="#10B981" opacity="0.2"/>
  <circle cx="300" cy="180" r="20" fill="#10B981"/>
  <rect x="340" y="170" width="100" height="12" rx="6" fill="#1E293B"/>
  <rect x="340" y="190" width="60" height="8" rx="4" fill="#64748B"/>
  
  <rect x="500" y="140" width="220" height="120" rx="12" fill="white" stroke="#E2E8F0" stroke-width="1"/>
  <circle cx="540" cy="180" r="30" fill="#F59E0B" opacity="0.2"/>
  <circle cx="540" cy="180" r="20" fill="#F59E0B"/>
  <rect x="580" y="170" width="100" height="12" rx="6" fill="#1E293B"/>
  <rect x="580" y="190" width="60" height="8" rx="4" fill="#64748B"/>
  
  <rect x="260" y="280" width="220" height="120" rx="12" fill="white" stroke="#E2E8F0" stroke-width="1"/>
  <circle cx="300" cy="320" r="30" fill="#EF4444" opacity="0.2"/>
  <circle cx="300" cy="320" r="20" fill="#EF4444"/>
  <rect x="340" y="310" width="100" height="12" rx="6" fill="#1E293B"/>
  <rect x="340" y="330" width="60" height="8" rx="4" fill="#64748B"/>
  
  <rect x="500" y="280" width="220" height="120" rx="12" fill="white" stroke="#E2E8F0" stroke-width="1"/>
  <circle cx="540" cy="320" r="30" fill="#8B5CF6" opacity="0.2"/>
  <circle cx="540" cy="320" r="20" fill="#8B5CF6"/>
  <rect x="580" y="310" width="100" height="12" rx="6" fill="#1E293B"/>
  <rect x="580" y="330" width="60" height="8" rx="4" fill="#64748B"/>
  
  <!-- Chart Area -->
  <rect x="260" y="420" width="460" height="140" rx="12" fill="white" stroke="#E2E8F0" stroke-width="1"/>
  <rect x="280" y="440" width="80" height="8" rx="4" fill="#1E293B"/>
  
  <!-- Chart Line -->
  <path d="M 280 500 Q 320 480, 360 490 T 440 485 T 520 495 T 600 490 T 680 500" 
        stroke="#3B82F6" 
        stroke-width="3" 
        fill="none" 
        stroke-linecap="round"/>
  
  <!-- Data Points -->
  <circle cx="280" cy="500" r="4" fill="#3B82F6"/>
  <circle cx="360" cy="490" r="4" fill="#3B82F6"/>
  <circle cx="440" cy="485" r="4" fill="#3B82F6"/>
  <circle cx="520" cy="495" r="4" fill="#3B82F6"/>
  <circle cx="600" cy="490" r="4" fill="#3B82F6"/>
  <circle cx="680" cy="500" r="4" fill="#3B82F6"/>
  
  <!-- Appointment List -->
  <rect x="260" y="280" width="220" height="120" rx="12" fill="white" stroke="#E2E8F0" stroke-width="1"/>
  <rect x="280" y="300" width="60" height="6" rx="3" fill="#1E293B"/>
  <rect x="280" y="320" width="180" height="4" rx="2" fill="#E2E8F0"/>
  <rect x="280" y="330" width="140" height="4" rx="2" fill="#E2E8F0"/>
  <rect x="280" y="350" width="180" height="4" rx="2" fill="#E2E8F0"/>
  <rect x="280" y="360" width="120" height="4" rx="2" fill="#E2E8F0"/>
  <rect x="280" y="380" width="160" height="4" rx="2" fill="#E2E8F0"/>
</svg>

